<?xml version="1.0" standalone="no"?>
<!DOCTYPE svg PUBLIC "-//W3C//DTD SVG 20010904//EN"
 "http://www.w3.org/TR/2001/REC-SVG-20010904/DTD/svg10.dtd">
<svg version="1.0" xmlns="http://www.w3.org/2000/svg"
 width="400.000000pt" height="135.000000pt" viewBox="0 0 400.000000 135.000000"
 preserveAspectRatio="xMidYMid meet">

<g transform="translate(0.000000,135.000000) scale(0.100000,-0.100000)"
fill="#000000" stroke="none">
<path d="M407 1162 c-23 -14 -26 -22 -21 -44 5 -24 1 -31 -28 -47 -18 -11 -50
-42 -70 -69 -31 -42 -36 -55 -32 -88 5 -37 2 -41 -45 -79 -54 -43 -61 -60 -34
-80 17 -13 17 -14 0 -32 -20 -22 -22 -54 -6 -70 9 -9 8 -21 -5 -47 -9 -19 -19
-47 -22 -63 -5 -27 -3 -30 34 -42 22 -8 45 -10 52 -6 6 4 19 0 28 -8 9 -8 30
-17 45 -21 16 -4 40 -18 53 -31 31 -31 32 -94 4 -160 -25 -57 -25 -65 -2 -65
23 0 71 51 106 112 47 81 91 113 201 148 53 17 62 25 71 63 3 18 26 55 49 82
23 28 50 71 59 95 8 25 22 64 31 88 16 45 16 44 -47 214 -15 41 -142 123 -202
131 -27 4 -55 12 -62 18 -23 19 -126 20 -157 1z"/>
<path d="M2382 765 l-3 -356 78 3 78 3 9 48 c4 26 11 47 15 47 3 0 14 -14 23
-30 33 -57 132 -93 194 -70 39 15 81 56 107 105 18 33 22 57 22 140 0 92 -2
104 -30 155 -39 70 -82 100 -147 100 -64 0 -116 -25 -140 -67 -11 -18 -24 -33
-28 -33 -5 0 -6 70 -3 155 l6 155 -89 0 -89 0 -3 -355z m322 -41 c57 -58 20
-168 -57 -168 -56 0 -87 35 -87 96 0 40 5 53 26 73 36 34 83 33 118 -1z"/>
<path d="M3566 767 l2 -352 91 -3 91 -3 0 356 0 355 -92 0 -93 0 1 -353z"/>
<path d="M1050 778 c0 -161 -3 -310 -6 -331 l-7 -37 108 0 107 0 -7 238 c-4
145 -2 231 3 222 5 -8 49 -115 97 -237 l88 -223 143 0 142 0 -1 330 -1 330
-94 0 -93 0 3 -249 c2 -137 2 -248 1 -247 -2 1 -45 112 -97 247 l-95 244 -145
3 -146 3 0 -293z"/>
<path d="M1912 885 c-111 -57 -159 -184 -118 -318 20 -67 50 -103 113 -133 47
-23 69 -28 137 -28 95 0 144 14 192 57 74 64 103 184 69 286 -36 111 -102 153
-245 159 -87 3 -99 1 -148 -23z m209 -154 c24 -24 29 -38 29 -76 0 -66 -31
-95 -100 -95 -42 0 -55 5 -75 26 -44 47 -28 148 25 167 8 3 32 6 53 6 30 1 45
-6 68 -28z"/>
<path d="M3139 901 c-43 -14 -71 -32 -98 -64 -51 -59 -60 -87 -60 -177 -1
-100 17 -149 72 -197 49 -43 98 -57 197 -58 74 0 93 4 143 28 66 33 135 117
96 117 -6 0 -38 12 -71 26 l-59 27 -23 -22 c-29 -28 -95 -38 -135 -21 -16 6
-36 26 -45 43 l-15 32 186 3 186 2 -7 58 c-9 75 -48 138 -110 177 -44 27 -58
30 -140 32 -50 1 -103 -2 -117 -6z m165 -142 c48 -38 35 -49 -58 -49 -47 0
-87 4 -90 9 -6 9 30 45 54 54 32 12 68 6 94 -14z"/>
</g>
</svg>